<mxfile host="app.diagrams.net" modified="2021-11-26T14:56:34.732Z" agent="5.0 (Windows NT 10.0; Win64; x64) AppleWebKit/537.36 (KHTML, like Gecko) Chrome/96.0.4664.55 Safari/537.36 Edg/96.0.1054.34" etag="kJNB0tJtIVjhMDUPtYSF" version="15.8.6" type="github">
  <diagram id="igo4uNjCr-Ke5Vf-IItO" name="第 1 页">
    <mxGraphModel dx="3716" dy="1154" grid="1" gridSize="10" guides="1" tooltips="1" connect="1" arrows="1" fold="1" page="1" pageScale="1" pageWidth="827" pageHeight="1169" math="0" shadow="0">
      <root>
        <mxCell id="0" />
        <mxCell id="1" parent="0" />
        <mxCell id="fuQh6k8OXMfidY5moS3Q-1" value="抖音" style="swimlane;startSize=20;" vertex="1" parent="1">
          <mxGeometry x="-1440" y="10" width="420" height="700" as="geometry" />
        </mxCell>
        <mxCell id="fuQh6k8OXMfidY5moS3Q-2" value="发起" style="edgeStyle=orthogonalEdgeStyle;html=1;entryX=0;entryY=0.5;entryDx=0;entryDy=0;startSize=20;" edge="1" parent="fuQh6k8OXMfidY5moS3Q-1" source="fuQh6k8OXMfidY5moS3Q-3" target="fuQh6k8OXMfidY5moS3Q-4">
          <mxGeometry relative="1" as="geometry" />
        </mxCell>
        <mxCell id="fuQh6k8OXMfidY5moS3Q-3" value="买家" style="shape=umlActor;verticalLabelPosition=bottom;verticalAlign=top;html=1;outlineConnect=0;startSize=20;" vertex="1" parent="fuQh6k8OXMfidY5moS3Q-1">
          <mxGeometry x="20" y="110" width="30" height="60" as="geometry" />
        </mxCell>
        <mxCell id="fuQh6k8OXMfidY5moS3Q-4" value="申请售后" style="swimlane;startSize=20;dashed=1;" vertex="1" parent="fuQh6k8OXMfidY5moS3Q-1">
          <mxGeometry x="110" y="40" width="200" height="200" as="geometry">
            <mxRectangle x="110" y="40" width="80" height="20" as="alternateBounds" />
          </mxGeometry>
        </mxCell>
        <mxCell id="fuQh6k8OXMfidY5moS3Q-5" value="售后订单" style="ellipse;shape=cloud;whiteSpace=wrap;html=1;startSize=20;" vertex="1" parent="fuQh6k8OXMfidY5moS3Q-1">
          <mxGeometry x="150" y="320" width="120" height="80" as="geometry" />
        </mxCell>
        <mxCell id="fuQh6k8OXMfidY5moS3Q-6" value="存储" style="edgeStyle=orthogonalEdgeStyle;html=1;startSize=20;entryX=0.4;entryY=0.1;entryDx=0;entryDy=0;entryPerimeter=0;" edge="1" parent="fuQh6k8OXMfidY5moS3Q-1" source="fuQh6k8OXMfidY5moS3Q-4" target="fuQh6k8OXMfidY5moS3Q-5">
          <mxGeometry relative="1" as="geometry">
            <mxPoint x="210" y="310" as="targetPoint" />
          </mxGeometry>
        </mxCell>
        <mxCell id="fuQh6k8OXMfidY5moS3Q-7" value="小平台" style="swimlane;startSize=20;" vertex="1" parent="1">
          <mxGeometry x="-1020" y="10" width="380" height="1530" as="geometry">
            <mxRectangle x="470" y="20" width="70" height="20" as="alternateBounds" />
          </mxGeometry>
        </mxCell>
        <mxCell id="fuQh6k8OXMfidY5moS3Q-8" value="执行" style="edgeStyle=orthogonalEdgeStyle;html=1;entryX=0.5;entryY=0;entryDx=0;entryDy=0;startSize=20;" edge="1" parent="fuQh6k8OXMfidY5moS3Q-7" source="fuQh6k8OXMfidY5moS3Q-9" target="fuQh6k8OXMfidY5moS3Q-10">
          <mxGeometry relative="1" as="geometry">
            <mxPoint x="180" y="110" as="targetPoint" />
          </mxGeometry>
        </mxCell>
        <mxCell id="fuQh6k8OXMfidY5moS3Q-9" value="服务" style="ellipse;whiteSpace=wrap;html=1;aspect=fixed;startSize=20;" vertex="1" parent="fuQh6k8OXMfidY5moS3Q-7">
          <mxGeometry x="140" y="60" width="30" height="30" as="geometry" />
        </mxCell>
        <mxCell id="fuQh6k8OXMfidY5moS3Q-10" value="抖音定时拉单任务" style="swimlane;startSize=20;dashed=1;" vertex="1" parent="fuQh6k8OXMfidY5moS3Q-7">
          <mxGeometry x="90" y="250" width="200" height="200" as="geometry">
            <mxRectangle x="90" y="250" width="130" height="20" as="alternateBounds" />
          </mxGeometry>
        </mxCell>
        <mxCell id="fuQh6k8OXMfidY5moS3Q-11" value="可退回/不可退回操作&lt;br&gt;预留功能接口-无需实际操作" style="rounded=0;whiteSpace=wrap;html=1;startSize=20;" vertex="1" parent="fuQh6k8OXMfidY5moS3Q-7">
          <mxGeometry x="80" y="1230" width="120" height="60" as="geometry" />
        </mxCell>
        <mxCell id="fuQh6k8OXMfidY5moS3Q-12" value="根据平台，确认是否需要回传确认收货" style="rounded=0;whiteSpace=wrap;html=1;startSize=20;" vertex="1" parent="fuQh6k8OXMfidY5moS3Q-7">
          <mxGeometry x="80" y="1440" width="120" height="60" as="geometry" />
        </mxCell>
        <mxCell id="fuQh6k8OXMfidY5moS3Q-13" value="根据平台，回传发货单号" style="rounded=0;whiteSpace=wrap;html=1;startSize=20;" vertex="1" parent="fuQh6k8OXMfidY5moS3Q-7">
          <mxGeometry x="80" y="1330" width="120" height="60" as="geometry" />
        </mxCell>
        <mxCell id="fuQh6k8OXMfidY5moS3Q-14" style="html=1;exitX=0;exitY=0.5;exitDx=0;exitDy=0;endArrow=block;endFill=0;entryX=0.88;entryY=0.25;entryDx=0;entryDy=0;entryPerimeter=0;dashed=1;rounded=0;edgeStyle=orthogonalEdgeStyle;" edge="1" parent="1" source="fuQh6k8OXMfidY5moS3Q-10" target="fuQh6k8OXMfidY5moS3Q-5">
          <mxGeometry relative="1" as="geometry" />
        </mxCell>
        <mxCell id="fuQh6k8OXMfidY5moS3Q-15" value="拉取" style="edgeLabel;html=1;align=center;verticalAlign=middle;resizable=0;points=[];" vertex="1" connectable="0" parent="fuQh6k8OXMfidY5moS3Q-14">
          <mxGeometry x="0.0489" y="4" relative="1" as="geometry">
            <mxPoint y="-5" as="offset" />
          </mxGeometry>
        </mxCell>
        <mxCell id="fuQh6k8OXMfidY5moS3Q-16" value="推送退换货信息" style="edgeStyle=orthogonalEdgeStyle;rounded=1;html=1;entryX=0.5;entryY=0;entryDx=0;entryDy=0;endArrow=classic;endFill=1;exitX=1;exitY=0.5;exitDx=0;exitDy=0;" edge="1" parent="1" source="fuQh6k8OXMfidY5moS3Q-10" target="fuQh6k8OXMfidY5moS3Q-76">
          <mxGeometry x="0.1352" relative="1" as="geometry">
            <Array as="points">
              <mxPoint x="-260" y="360" />
            </Array>
            <mxPoint as="offset" />
          </mxGeometry>
        </mxCell>
        <mxCell id="fuQh6k8OXMfidY5moS3Q-17" style="edgeStyle=orthogonalEdgeStyle;rounded=0;html=1;exitX=1;exitY=0.5;exitDx=0;exitDy=0;entryX=0;entryY=0.5;entryDx=0;entryDy=0;endArrow=classic;endFill=1;" edge="1" parent="1" source="fuQh6k8OXMfidY5moS3Q-102" target="fuQh6k8OXMfidY5moS3Q-114">
          <mxGeometry relative="1" as="geometry" />
        </mxCell>
        <mxCell id="fuQh6k8OXMfidY5moS3Q-18" value="推送退货单" style="edgeLabel;html=1;align=center;verticalAlign=middle;resizable=0;points=[];" vertex="1" connectable="0" parent="fuQh6k8OXMfidY5moS3Q-17">
          <mxGeometry x="0.0857" y="1" relative="1" as="geometry">
            <mxPoint as="offset" />
          </mxGeometry>
        </mxCell>
        <mxCell id="fuQh6k8OXMfidY5moS3Q-19" value="收货回传" style="edgeStyle=orthogonalEdgeStyle;rounded=0;html=1;entryX=1;entryY=0.5;entryDx=0;entryDy=0;endArrow=classic;endFill=1;" edge="1" parent="1" source="fuQh6k8OXMfidY5moS3Q-115" target="fuQh6k8OXMfidY5moS3Q-96">
          <mxGeometry relative="1" as="geometry" />
        </mxCell>
        <mxCell id="fuQh6k8OXMfidY5moS3Q-20" value="t推送发货单" style="edgeStyle=orthogonalEdgeStyle;rounded=0;html=1;exitX=1;exitY=0.5;exitDx=0;exitDy=0;entryX=0;entryY=0.5;entryDx=0;entryDy=0;endArrow=classic;endFill=1;" edge="1" parent="1" source="fuQh6k8OXMfidY5moS3Q-100" target="fuQh6k8OXMfidY5moS3Q-117">
          <mxGeometry relative="1" as="geometry" />
        </mxCell>
        <mxCell id="fuQh6k8OXMfidY5moS3Q-21" value="出库回传" style="edgeStyle=orthogonalEdgeStyle;rounded=0;html=1;entryX=1;entryY=0.5;entryDx=0;entryDy=0;endArrow=classic;endFill=1;" edge="1" parent="1" source="fuQh6k8OXMfidY5moS3Q-118" target="fuQh6k8OXMfidY5moS3Q-101">
          <mxGeometry relative="1" as="geometry" />
        </mxCell>
        <mxCell id="fuQh6k8OXMfidY5moS3Q-22" value="淘宝" style="swimlane;startSize=20;" vertex="1" parent="1">
          <mxGeometry x="280" y="10" width="710" height="4110" as="geometry" />
        </mxCell>
        <mxCell id="fuQh6k8OXMfidY5moS3Q-23" style="edgeStyle=orthogonalEdgeStyle;rounded=1;html=1;entryX=0.5;entryY=0;entryDx=0;entryDy=0;endArrow=classic;endFill=1;" edge="1" parent="fuQh6k8OXMfidY5moS3Q-22" source="fuQh6k8OXMfidY5moS3Q-25" target="fuQh6k8OXMfidY5moS3Q-30">
          <mxGeometry relative="1" as="geometry">
            <Array as="points">
              <mxPoint x="625" y="190" />
              <mxPoint x="380" y="190" />
            </Array>
          </mxGeometry>
        </mxCell>
        <mxCell id="fuQh6k8OXMfidY5moS3Q-24" style="edgeStyle=orthogonalEdgeStyle;rounded=1;html=1;entryX=1;entryY=0.5;entryDx=0;entryDy=0;endArrow=classic;endFill=1;" edge="1" parent="fuQh6k8OXMfidY5moS3Q-22" source="fuQh6k8OXMfidY5moS3Q-25" target="fuQh6k8OXMfidY5moS3Q-27">
          <mxGeometry relative="1" as="geometry">
            <Array as="points">
              <mxPoint x="625" y="140" />
            </Array>
          </mxGeometry>
        </mxCell>
        <mxCell id="fuQh6k8OXMfidY5moS3Q-25" value="服务" style="ellipse;whiteSpace=wrap;html=1;aspect=fixed;startSize=20;" vertex="1" parent="fuQh6k8OXMfidY5moS3Q-22">
          <mxGeometry x="610" y="40" width="30" height="30" as="geometry" />
        </mxCell>
        <mxCell id="fuQh6k8OXMfidY5moS3Q-26" value="淘宝退款退货" style="swimlane;startSize=20;dashed=1;" vertex="1" parent="fuQh6k8OXMfidY5moS3Q-22">
          <mxGeometry x="140" y="40" width="200" height="200" as="geometry">
            <mxRectangle x="140" y="40" width="100" height="20" as="alternateBounds" />
          </mxGeometry>
        </mxCell>
        <mxCell id="fuQh6k8OXMfidY5moS3Q-27" value="解析退货退款，写入asRefund，后续由【退款处理】模块处理，此处略过" style="rounded=0;whiteSpace=wrap;html=1;startSize=20;" vertex="1" parent="fuQh6k8OXMfidY5moS3Q-26">
          <mxGeometry x="40" y="70" width="120" height="60" as="geometry" />
        </mxCell>
        <mxCell id="fuQh6k8OXMfidY5moS3Q-28" value="淘宝退货换货" style="swimlane;startSize=20;dashed=1;" vertex="1" parent="fuQh6k8OXMfidY5moS3Q-22">
          <mxGeometry x="140" y="280" width="470" height="660" as="geometry">
            <mxRectangle x="140" y="280" width="100" height="20" as="alternateBounds" />
          </mxGeometry>
        </mxCell>
        <mxCell id="fuQh6k8OXMfidY5moS3Q-29" value="" style="edgeStyle=orthogonalEdgeStyle;rounded=0;html=1;endArrow=classic;endFill=1;" edge="1" parent="fuQh6k8OXMfidY5moS3Q-28" source="fuQh6k8OXMfidY5moS3Q-30" target="fuQh6k8OXMfidY5moS3Q-32">
          <mxGeometry relative="1" as="geometry" />
        </mxCell>
        <mxCell id="fuQh6k8OXMfidY5moS3Q-30" value="查询&lt;br&gt;sys_info_log..SystemJobConfig&lt;br&gt;jobCode = jdp_tb_returnAndSend&lt;br&gt;获取查询开始时间，间隔时间" style="rounded=0;whiteSpace=wrap;html=1;startSize=20;" vertex="1" parent="fuQh6k8OXMfidY5moS3Q-28">
          <mxGeometry x="120" y="40" width="240" height="60" as="geometry" />
        </mxCell>
        <mxCell id="fuQh6k8OXMfidY5moS3Q-31" value="" style="edgeStyle=orthogonalEdgeStyle;rounded=0;html=1;endArrow=classic;endFill=1;" edge="1" parent="fuQh6k8OXMfidY5moS3Q-28" source="fuQh6k8OXMfidY5moS3Q-32" target="fuQh6k8OXMfidY5moS3Q-33">
          <mxGeometry relative="1" as="geometry" />
        </mxCell>
        <mxCell id="fuQh6k8OXMfidY5moS3Q-32" value="调用淘宝退换货查询接口&lt;br&gt;tmall.exchange.receive.get" style="rounded=0;whiteSpace=wrap;html=1;startSize=20;" vertex="1" parent="fuQh6k8OXMfidY5moS3Q-28">
          <mxGeometry x="120" y="150" width="240" height="60" as="geometry" />
        </mxCell>
        <mxCell id="fuQh6k8OXMfidY5moS3Q-33" value="批量获取退换货" style="rounded=0;whiteSpace=wrap;html=1;startSize=20;" vertex="1" parent="fuQh6k8OXMfidY5moS3Q-28">
          <mxGeometry x="120" y="260" width="240" height="60" as="geometry" />
        </mxCell>
        <mxCell id="fuQh6k8OXMfidY5moS3Q-34" value="是" style="edgeStyle=orthogonalEdgeStyle;rounded=0;html=1;endArrow=classic;endFill=1;" edge="1" parent="fuQh6k8OXMfidY5moS3Q-28" source="fuQh6k8OXMfidY5moS3Q-36" target="fuQh6k8OXMfidY5moS3Q-38">
          <mxGeometry relative="1" as="geometry" />
        </mxCell>
        <mxCell id="fuQh6k8OXMfidY5moS3Q-35" value="否" style="edgeStyle=orthogonalEdgeStyle;rounded=1;html=1;entryX=1;entryY=0.5;entryDx=0;entryDy=0;endArrow=classic;endFill=1;" edge="1" parent="fuQh6k8OXMfidY5moS3Q-28" source="fuQh6k8OXMfidY5moS3Q-36" target="fuQh6k8OXMfidY5moS3Q-39">
          <mxGeometry relative="1" as="geometry">
            <Array as="points">
              <mxPoint x="400" y="390" />
              <mxPoint x="400" y="600" />
            </Array>
          </mxGeometry>
        </mxCell>
        <mxCell id="fuQh6k8OXMfidY5moS3Q-36" value="成功？" style="rhombus;whiteSpace=wrap;html=1;startSize=20;" vertex="1" parent="fuQh6k8OXMfidY5moS3Q-28">
          <mxGeometry x="200" y="350" width="80" height="80" as="geometry" />
        </mxCell>
        <mxCell id="fuQh6k8OXMfidY5moS3Q-37" style="edgeStyle=orthogonalEdgeStyle;rounded=0;html=1;entryX=0.5;entryY=0;entryDx=0;entryDy=0;endArrow=classic;endFill=1;" edge="1" parent="fuQh6k8OXMfidY5moS3Q-28" source="fuQh6k8OXMfidY5moS3Q-38" target="fuQh6k8OXMfidY5moS3Q-39">
          <mxGeometry relative="1" as="geometry" />
        </mxCell>
        <mxCell id="fuQh6k8OXMfidY5moS3Q-38" value="记录单据号日志，并更新&lt;br&gt;SystemJobConfig最后数据时间" style="whiteSpace=wrap;html=1;startSize=20;" vertex="1" parent="fuQh6k8OXMfidY5moS3Q-28">
          <mxGeometry x="120" y="470" width="240" height="60" as="geometry" />
        </mxCell>
        <mxCell id="fuQh6k8OXMfidY5moS3Q-39" value="结束" style="ellipse;whiteSpace=wrap;html=1;aspect=fixed;startSize=20;" vertex="1" parent="fuQh6k8OXMfidY5moS3Q-28">
          <mxGeometry x="220" y="580" width="40" height="40" as="geometry" />
        </mxCell>
        <mxCell id="fuQh6k8OXMfidY5moS3Q-40" value="&lt;span&gt;可退回/不可退回操作&lt;/span&gt;&lt;br&gt;&lt;span&gt;预留功能接口-无需实际操作&lt;/span&gt;" style="rounded=0;whiteSpace=wrap;html=1;startSize=20;" vertex="1" parent="fuQh6k8OXMfidY5moS3Q-22">
          <mxGeometry x="650" y="2180" width="120" height="60" as="geometry" />
        </mxCell>
        <mxCell id="fuQh6k8OXMfidY5moS3Q-41" value="回传天猫，调用卖家确认收货" style="rounded=0;whiteSpace=wrap;html=1;startSize=20;" vertex="1" parent="fuQh6k8OXMfidY5moS3Q-22">
          <mxGeometry x="460" y="2120" width="120" height="60" as="geometry" />
        </mxCell>
        <mxCell id="fuQh6k8OXMfidY5moS3Q-42" value="回传天猫，调用卖家发货" style="rounded=0;whiteSpace=wrap;html=1;startSize=20;" vertex="1" parent="fuQh6k8OXMfidY5moS3Q-22">
          <mxGeometry x="460" y="2200" width="120" height="60" as="geometry" />
        </mxCell>
        <mxCell id="fuQh6k8OXMfidY5moS3Q-43" value="消息中心" style="swimlane;startSize=20;" vertex="1" parent="fuQh6k8OXMfidY5moS3Q-22">
          <mxGeometry x="20" y="2100" width="320" height="890" as="geometry" />
        </mxCell>
        <mxCell id="fuQh6k8OXMfidY5moS3Q-44" style="edgeStyle=orthogonalEdgeStyle;rounded=0;html=1;entryX=0.5;entryY=0;entryDx=0;entryDy=0;endArrow=classic;endFill=1;" edge="1" parent="fuQh6k8OXMfidY5moS3Q-43" source="fuQh6k8OXMfidY5moS3Q-45" target="fuQh6k8OXMfidY5moS3Q-50">
          <mxGeometry relative="1" as="geometry" />
        </mxCell>
        <mxCell id="fuQh6k8OXMfidY5moS3Q-45" value="退换货操作消息" style="ellipse;shape=cloud;whiteSpace=wrap;html=1;startSize=20;" vertex="1" parent="fuQh6k8OXMfidY5moS3Q-43">
          <mxGeometry x="90" y="70" width="120" height="80" as="geometry" />
        </mxCell>
        <mxCell id="fuQh6k8OXMfidY5moS3Q-46" style="edgeStyle=orthogonalEdgeStyle;rounded=0;html=1;entryX=0.5;entryY=0;entryDx=0;entryDy=0;endArrow=classic;endFill=1;" edge="1" parent="fuQh6k8OXMfidY5moS3Q-43" source="fuQh6k8OXMfidY5moS3Q-47" target="fuQh6k8OXMfidY5moS3Q-51">
          <mxGeometry relative="1" as="geometry" />
        </mxCell>
        <mxCell id="fuQh6k8OXMfidY5moS3Q-47" value="退回确认/拒绝消息" style="ellipse;shape=cloud;whiteSpace=wrap;html=1;startSize=20;" vertex="1" parent="fuQh6k8OXMfidY5moS3Q-43">
          <mxGeometry x="80" y="370" width="120" height="80" as="geometry" />
        </mxCell>
        <mxCell id="fuQh6k8OXMfidY5moS3Q-48" style="edgeStyle=orthogonalEdgeStyle;rounded=0;html=1;entryX=0.5;entryY=1;entryDx=0;entryDy=0;endArrow=classic;endFill=1;" edge="1" parent="fuQh6k8OXMfidY5moS3Q-43" source="fuQh6k8OXMfidY5moS3Q-49" target="fuQh6k8OXMfidY5moS3Q-52">
          <mxGeometry relative="1" as="geometry" />
        </mxCell>
        <mxCell id="fuQh6k8OXMfidY5moS3Q-49" value="换货出库确认消息" style="ellipse;shape=cloud;whiteSpace=wrap;html=1;startSize=20;" vertex="1" parent="fuQh6k8OXMfidY5moS3Q-43">
          <mxGeometry x="20" y="780" width="120" height="80" as="geometry" />
        </mxCell>
        <mxCell id="fuQh6k8OXMfidY5moS3Q-50" value="天猫/其他" style="rhombus;whiteSpace=wrap;html=1;startSize=20;" vertex="1" parent="fuQh6k8OXMfidY5moS3Q-43">
          <mxGeometry x="110" y="250" width="80" height="80" as="geometry" />
        </mxCell>
        <mxCell id="fuQh6k8OXMfidY5moS3Q-51" value="&lt;span&gt;天猫/其他&lt;/span&gt;" style="rhombus;whiteSpace=wrap;html=1;startSize=20;" vertex="1" parent="fuQh6k8OXMfidY5moS3Q-43">
          <mxGeometry x="100" y="510" width="80" height="80" as="geometry" />
        </mxCell>
        <mxCell id="fuQh6k8OXMfidY5moS3Q-52" value="&lt;span&gt;天猫/其他&lt;/span&gt;" style="rhombus;whiteSpace=wrap;html=1;startSize=20;" vertex="1" parent="fuQh6k8OXMfidY5moS3Q-43">
          <mxGeometry x="80" y="650" width="80" height="80" as="geometry" />
        </mxCell>
        <mxCell id="fuQh6k8OXMfidY5moS3Q-53" style="edgeStyle=orthogonalEdgeStyle;rounded=0;html=1;exitX=0.5;exitY=1;exitDx=0;exitDy=0;entryX=1;entryY=0.5;entryDx=0;entryDy=0;endArrow=classic;endFill=1;" edge="1" parent="fuQh6k8OXMfidY5moS3Q-22" source="fuQh6k8OXMfidY5moS3Q-50" target="fuQh6k8OXMfidY5moS3Q-40">
          <mxGeometry relative="1" as="geometry" />
        </mxCell>
        <mxCell id="fuQh6k8OXMfidY5moS3Q-54" value="天猫" style="edgeLabel;html=1;align=center;verticalAlign=middle;resizable=0;points=[];" vertex="1" connectable="0" parent="fuQh6k8OXMfidY5moS3Q-53">
          <mxGeometry x="-0.3345" y="-1" relative="1" as="geometry">
            <mxPoint as="offset" />
          </mxGeometry>
        </mxCell>
        <mxCell id="fuQh6k8OXMfidY5moS3Q-55" style="edgeStyle=orthogonalEdgeStyle;rounded=0;html=1;endArrow=classic;endFill=1;" edge="1" parent="fuQh6k8OXMfidY5moS3Q-22" source="fuQh6k8OXMfidY5moS3Q-51" target="fuQh6k8OXMfidY5moS3Q-41">
          <mxGeometry relative="1" as="geometry">
            <mxPoint x="260" y="1310" as="targetPoint" />
          </mxGeometry>
        </mxCell>
        <mxCell id="fuQh6k8OXMfidY5moS3Q-56" value="天猫" style="edgeLabel;html=1;align=center;verticalAlign=middle;resizable=0;points=[];" vertex="1" connectable="0" parent="fuQh6k8OXMfidY5moS3Q-55">
          <mxGeometry x="0.6643" y="1" relative="1" as="geometry">
            <mxPoint as="offset" />
          </mxGeometry>
        </mxCell>
        <mxCell id="fuQh6k8OXMfidY5moS3Q-57" style="edgeStyle=orthogonalEdgeStyle;rounded=0;html=1;entryX=1;entryY=0.5;entryDx=0;entryDy=0;endArrow=classic;endFill=1;" edge="1" parent="fuQh6k8OXMfidY5moS3Q-22" source="fuQh6k8OXMfidY5moS3Q-52" target="fuQh6k8OXMfidY5moS3Q-42">
          <mxGeometry relative="1" as="geometry" />
        </mxCell>
        <mxCell id="fuQh6k8OXMfidY5moS3Q-58" value="天猫" style="edgeLabel;html=1;align=center;verticalAlign=middle;resizable=0;points=[];" vertex="1" connectable="0" parent="fuQh6k8OXMfidY5moS3Q-57">
          <mxGeometry x="0.1067" relative="1" as="geometry">
            <mxPoint x="-5" y="500" as="offset" />
          </mxGeometry>
        </mxCell>
        <mxCell id="fuQh6k8OXMfidY5moS3Q-59" value="推送退款信息" style="edgeStyle=orthogonalEdgeStyle;rounded=1;html=1;exitX=1;exitY=0.5;exitDx=0;exitDy=0;entryX=0;entryY=0.5;entryDx=0;entryDy=0;endArrow=classic;endFill=1;" edge="1" parent="1" source="fuQh6k8OXMfidY5moS3Q-10" target="fuQh6k8OXMfidY5moS3Q-106">
          <mxGeometry x="0.4328" relative="1" as="geometry">
            <Array as="points">
              <mxPoint x="-730" y="330" />
              <mxPoint x="-670" y="330" />
              <mxPoint x="-670" y="140" />
            </Array>
            <mxPoint as="offset" />
          </mxGeometry>
        </mxCell>
        <mxCell id="fuQh6k8OXMfidY5moS3Q-60" style="edgeStyle=orthogonalEdgeStyle;rounded=0;html=1;exitX=0;exitY=0.75;exitDx=0;exitDy=0;entryX=0.958;entryY=0.525;entryDx=0;entryDy=0;entryPerimeter=0;endArrow=classic;endFill=1;" edge="1" parent="1" source="fuQh6k8OXMfidY5moS3Q-102" target="fuQh6k8OXMfidY5moS3Q-45">
          <mxGeometry relative="1" as="geometry">
            <Array as="points">
              <mxPoint x="285" y="1270" />
            </Array>
          </mxGeometry>
        </mxCell>
        <mxCell id="fuQh6k8OXMfidY5moS3Q-61" value="可退回/不可退回操作通知" style="edgeLabel;align=center;verticalAlign=middle;resizable=0;points=[];html=1;" vertex="1" connectable="0" parent="fuQh6k8OXMfidY5moS3Q-60">
          <mxGeometry x="0.2923" y="2" relative="1" as="geometry">
            <mxPoint x="-14" y="-8" as="offset" />
          </mxGeometry>
        </mxCell>
        <mxCell id="fuQh6k8OXMfidY5moS3Q-62" style="edgeStyle=orthogonalEdgeStyle;rounded=0;html=1;endArrow=classic;endFill=1;" edge="1" parent="1" source="fuQh6k8OXMfidY5moS3Q-104" target="fuQh6k8OXMfidY5moS3Q-47">
          <mxGeometry relative="1" as="geometry">
            <mxPoint x="740" y="1190" as="targetPoint" />
          </mxGeometry>
        </mxCell>
        <mxCell id="fuQh6k8OXMfidY5moS3Q-63" value="&lt;span style=&quot;font-size: 12px&quot;&gt;退回确认/拒绝&lt;/span&gt;" style="edgeLabel;html=1;align=center;verticalAlign=middle;resizable=0;points=[];" vertex="1" connectable="0" parent="fuQh6k8OXMfidY5moS3Q-62">
          <mxGeometry x="0.1156" y="-2" relative="1" as="geometry">
            <mxPoint as="offset" />
          </mxGeometry>
        </mxCell>
        <mxCell id="fuQh6k8OXMfidY5moS3Q-64" style="edgeStyle=orthogonalEdgeStyle;rounded=0;html=1;endArrow=classic;endFill=1;" edge="1" parent="1" source="fuQh6k8OXMfidY5moS3Q-101" target="fuQh6k8OXMfidY5moS3Q-49">
          <mxGeometry relative="1" as="geometry" />
        </mxCell>
        <mxCell id="fuQh6k8OXMfidY5moS3Q-65" value="其他" style="edgeStyle=orthogonalEdgeStyle;rounded=0;html=1;entryX=1;entryY=0.5;entryDx=0;entryDy=0;endArrow=classic;endFill=1;" edge="1" parent="1" source="fuQh6k8OXMfidY5moS3Q-50" target="fuQh6k8OXMfidY5moS3Q-11">
          <mxGeometry relative="1" as="geometry" />
        </mxCell>
        <mxCell id="fuQh6k8OXMfidY5moS3Q-66" style="edgeStyle=orthogonalEdgeStyle;rounded=0;html=1;entryX=0.5;entryY=1;entryDx=0;entryDy=0;endArrow=classic;endFill=1;" edge="1" parent="1" source="fuQh6k8OXMfidY5moS3Q-51" target="fuQh6k8OXMfidY5moS3Q-12">
          <mxGeometry relative="1" as="geometry" />
        </mxCell>
        <mxCell id="fuQh6k8OXMfidY5moS3Q-67" value="其他" style="edgeLabel;html=1;align=center;verticalAlign=middle;resizable=0;points=[];" vertex="1" connectable="0" parent="fuQh6k8OXMfidY5moS3Q-66">
          <mxGeometry x="-0.1528" y="-2" relative="1" as="geometry">
            <mxPoint x="-5" y="500" as="offset" />
          </mxGeometry>
        </mxCell>
        <mxCell id="fuQh6k8OXMfidY5moS3Q-68" style="edgeStyle=orthogonalEdgeStyle;rounded=0;html=1;entryX=0.5;entryY=1;entryDx=0;entryDy=0;endArrow=classic;endFill=1;" edge="1" parent="1" source="fuQh6k8OXMfidY5moS3Q-52" target="fuQh6k8OXMfidY5moS3Q-13">
          <mxGeometry relative="1" as="geometry">
            <Array as="points">
              <mxPoint x="200" y="1370" />
              <mxPoint x="-880" y="1370" />
            </Array>
          </mxGeometry>
        </mxCell>
        <mxCell id="fuQh6k8OXMfidY5moS3Q-69" value="其他" style="edgeLabel;html=1;align=center;verticalAlign=middle;resizable=0;points=[];" vertex="1" connectable="0" parent="fuQh6k8OXMfidY5moS3Q-68">
          <mxGeometry x="-0.7706" y="1" relative="1" as="geometry">
            <mxPoint as="offset" />
          </mxGeometry>
        </mxCell>
        <mxCell id="fuQh6k8OXMfidY5moS3Q-70" value="OMS" style="swimlane;startSize=20;" vertex="1" parent="1">
          <mxGeometry x="-640" y="10" width="920" height="2270" as="geometry" />
        </mxCell>
        <mxCell id="fuQh6k8OXMfidY5moS3Q-71" value="OMS退换货创建接口" style="swimlane;startSize=20;dashed=1;" vertex="1" parent="fuQh6k8OXMfidY5moS3Q-70">
          <mxGeometry x="80" y="430" width="740" height="550" as="geometry">
            <mxRectangle x="80" y="430" width="140" height="20" as="alternateBounds" />
          </mxGeometry>
        </mxCell>
        <mxCell id="fuQh6k8OXMfidY5moS3Q-72" style="edgeStyle=orthogonalEdgeStyle;rounded=0;html=1;entryX=0.5;entryY=0;entryDx=0;entryDy=0;endArrow=classic;endFill=1;" edge="1" parent="fuQh6k8OXMfidY5moS3Q-71" source="fuQh6k8OXMfidY5moS3Q-73" target="fuQh6k8OXMfidY5moS3Q-81">
          <mxGeometry relative="1" as="geometry" />
        </mxCell>
        <mxCell id="fuQh6k8OXMfidY5moS3Q-73" value="查询是否存在&lt;br&gt;原单号、运单号、单据类型，创建类型相同的退换货单" style="rounded=0;whiteSpace=wrap;html=1;startSize=20;" vertex="1" parent="fuQh6k8OXMfidY5moS3Q-71">
          <mxGeometry x="240" y="171" width="120" height="60" as="geometry" />
        </mxCell>
        <mxCell id="fuQh6k8OXMfidY5moS3Q-74" value="否" style="edgeStyle=orthogonalEdgeStyle;rounded=0;html=1;entryX=0.5;entryY=0;entryDx=0;entryDy=0;endArrow=classic;endFill=1;" edge="1" parent="fuQh6k8OXMfidY5moS3Q-71" source="fuQh6k8OXMfidY5moS3Q-76" target="fuQh6k8OXMfidY5moS3Q-73">
          <mxGeometry relative="1" as="geometry" />
        </mxCell>
        <mxCell id="fuQh6k8OXMfidY5moS3Q-75" value="是" style="edgeStyle=orthogonalEdgeStyle;rounded=0;html=1;endArrow=classic;endFill=1;" edge="1" parent="fuQh6k8OXMfidY5moS3Q-71" source="fuQh6k8OXMfidY5moS3Q-76" target="fuQh6k8OXMfidY5moS3Q-78">
          <mxGeometry relative="1" as="geometry" />
        </mxCell>
        <mxCell id="fuQh6k8OXMfidY5moS3Q-76" value="&lt;span&gt;判断退换货单号是否存在&lt;/span&gt;" style="rhombus;whiteSpace=wrap;html=1;startSize=20;" vertex="1" parent="fuQh6k8OXMfidY5moS3Q-71">
          <mxGeometry x="260" y="49" width="80" height="80" as="geometry" />
        </mxCell>
        <mxCell id="fuQh6k8OXMfidY5moS3Q-77" style="edgeStyle=orthogonalEdgeStyle;rounded=1;html=1;entryX=0;entryY=0.25;entryDx=0;entryDy=0;entryPerimeter=0;endArrow=classic;endFill=1;" edge="1" parent="fuQh6k8OXMfidY5moS3Q-71" source="fuQh6k8OXMfidY5moS3Q-78" target="fuQh6k8OXMfidY5moS3Q-85">
          <mxGeometry relative="1" as="geometry">
            <Array as="points">
              <mxPoint x="140" y="500" />
            </Array>
          </mxGeometry>
        </mxCell>
        <mxCell id="fuQh6k8OXMfidY5moS3Q-78" value="修改已存在的退换货单平台状态" style="whiteSpace=wrap;html=1;startSize=20;" vertex="1" parent="fuQh6k8OXMfidY5moS3Q-71">
          <mxGeometry x="80" y="59" width="120" height="60" as="geometry" />
        </mxCell>
        <mxCell id="fuQh6k8OXMfidY5moS3Q-79" value="否" style="edgeStyle=orthogonalEdgeStyle;rounded=0;html=1;endArrow=classic;endFill=1;" edge="1" parent="fuQh6k8OXMfidY5moS3Q-71" source="fuQh6k8OXMfidY5moS3Q-81" target="fuQh6k8OXMfidY5moS3Q-83">
          <mxGeometry relative="1" as="geometry" />
        </mxCell>
        <mxCell id="fuQh6k8OXMfidY5moS3Q-80" value="是" style="edgeStyle=orthogonalEdgeStyle;rounded=0;html=1;endArrow=classic;endFill=1;" edge="1" parent="fuQh6k8OXMfidY5moS3Q-71" source="fuQh6k8OXMfidY5moS3Q-81" target="fuQh6k8OXMfidY5moS3Q-84">
          <mxGeometry relative="1" as="geometry" />
        </mxCell>
        <mxCell id="fuQh6k8OXMfidY5moS3Q-81" value="相同？" style="rhombus;whiteSpace=wrap;html=1;startSize=20;" vertex="1" parent="fuQh6k8OXMfidY5moS3Q-71">
          <mxGeometry x="260" y="270" width="80" height="60" as="geometry" />
        </mxCell>
        <mxCell id="fuQh6k8OXMfidY5moS3Q-82" style="edgeStyle=orthogonalEdgeStyle;rounded=0;html=1;entryX=0.5;entryY=0;entryDx=0;entryDy=0;endArrow=classic;endFill=1;" edge="1" parent="fuQh6k8OXMfidY5moS3Q-71" source="fuQh6k8OXMfidY5moS3Q-83" target="fuQh6k8OXMfidY5moS3Q-85">
          <mxGeometry relative="1" as="geometry" />
        </mxCell>
        <mxCell id="fuQh6k8OXMfidY5moS3Q-83" value="创建新的退换货单" style="whiteSpace=wrap;html=1;startSize=20;" vertex="1" parent="fuQh6k8OXMfidY5moS3Q-71">
          <mxGeometry x="240" y="380" width="120" height="60" as="geometry" />
        </mxCell>
        <mxCell id="fuQh6k8OXMfidY5moS3Q-84" value="所有相同的单据标记合并、并生成合并单号（如果原来已有合并单号。不生成）" style="whiteSpace=wrap;html=1;startSize=20;" vertex="1" parent="fuQh6k8OXMfidY5moS3Q-71">
          <mxGeometry x="400" y="270" width="120" height="60" as="geometry" />
        </mxCell>
        <mxCell id="fuQh6k8OXMfidY5moS3Q-85" value="结束" style="ellipse;whiteSpace=wrap;html=1;aspect=fixed;startSize=20;" vertex="1" parent="fuQh6k8OXMfidY5moS3Q-71">
          <mxGeometry x="280" y="490" width="40" height="40" as="geometry" />
        </mxCell>
        <mxCell id="fuQh6k8OXMfidY5moS3Q-86" style="edgeStyle=orthogonalEdgeStyle;rounded=1;html=1;entryX=1.025;entryY=0.35;entryDx=0;entryDy=0;entryPerimeter=0;endArrow=classic;endFill=1;" edge="1" parent="fuQh6k8OXMfidY5moS3Q-71" source="fuQh6k8OXMfidY5moS3Q-87" target="fuQh6k8OXMfidY5moS3Q-85">
          <mxGeometry relative="1" as="geometry">
            <Array as="points">
              <mxPoint x="460" y="504" />
            </Array>
          </mxGeometry>
        </mxCell>
        <mxCell id="fuQh6k8OXMfidY5moS3Q-87" value="创建新的退换货单，并且为标记合单，拥有上一步生成的合并单号" style="whiteSpace=wrap;html=1;startSize=20;" vertex="1" parent="fuQh6k8OXMfidY5moS3Q-71">
          <mxGeometry x="400" y="380" width="120" height="60" as="geometry" />
        </mxCell>
        <mxCell id="fuQh6k8OXMfidY5moS3Q-88" style="edgeStyle=orthogonalEdgeStyle;rounded=0;html=1;endArrow=classic;endFill=1;entryX=0.5;entryY=0;entryDx=0;entryDy=0;" edge="1" parent="fuQh6k8OXMfidY5moS3Q-71" source="fuQh6k8OXMfidY5moS3Q-84" target="fuQh6k8OXMfidY5moS3Q-87">
          <mxGeometry relative="1" as="geometry">
            <mxPoint x="460" y="370" as="targetPoint" />
          </mxGeometry>
        </mxCell>
        <mxCell id="fuQh6k8OXMfidY5moS3Q-89" value="读取" style="edgeStyle=orthogonalEdgeStyle;rounded=0;html=1;entryX=0.5;entryY=1;entryDx=0;entryDy=0;endArrow=block;endFill=0;dashed=1;exitX=0.5;exitY=0;exitDx=0;exitDy=0;" edge="1" parent="fuQh6k8OXMfidY5moS3Q-70" source="fuQh6k8OXMfidY5moS3Q-93" target="fuQh6k8OXMfidY5moS3Q-107">
          <mxGeometry relative="1" as="geometry" />
        </mxCell>
        <mxCell id="fuQh6k8OXMfidY5moS3Q-90" value="生成" style="edgeStyle=orthogonalEdgeStyle;rounded=1;html=1;exitX=0.5;exitY=1;exitDx=0;exitDy=0;entryX=0.5;entryY=0;entryDx=0;entryDy=0;endArrow=classic;endFill=1;" edge="1" parent="fuQh6k8OXMfidY5moS3Q-70" source="fuQh6k8OXMfidY5moS3Q-94" target="fuQh6k8OXMfidY5moS3Q-76">
          <mxGeometry relative="1" as="geometry">
            <Array as="points">
              <mxPoint x="510" y="410" />
              <mxPoint x="380" y="410" />
            </Array>
          </mxGeometry>
        </mxCell>
        <mxCell id="fuQh6k8OXMfidY5moS3Q-91" value="退款处理" style="swimlane;startSize=20;dashed=1;" vertex="1" parent="fuQh6k8OXMfidY5moS3Q-70">
          <mxGeometry x="410" y="190" width="200" height="200" as="geometry">
            <mxRectangle x="410" y="190" width="80" height="20" as="alternateBounds" />
          </mxGeometry>
        </mxCell>
        <mxCell id="fuQh6k8OXMfidY5moS3Q-92" style="edgeStyle=orthogonalEdgeStyle;rounded=0;html=1;entryX=0.5;entryY=0;entryDx=0;entryDy=0;endArrow=classic;endFill=1;" edge="1" parent="fuQh6k8OXMfidY5moS3Q-91" source="fuQh6k8OXMfidY5moS3Q-93" target="fuQh6k8OXMfidY5moS3Q-94">
          <mxGeometry relative="1" as="geometry" />
        </mxCell>
        <mxCell id="fuQh6k8OXMfidY5moS3Q-93" value="AG取消，拦截" style="rounded=0;whiteSpace=wrap;html=1;startSize=20;" vertex="1" parent="fuQh6k8OXMfidY5moS3Q-91">
          <mxGeometry x="40" y="40" width="120" height="60" as="geometry" />
        </mxCell>
        <mxCell id="fuQh6k8OXMfidY5moS3Q-94" value="退货退款生成退货单" style="rounded=0;whiteSpace=wrap;html=1;startSize=20;" vertex="1" parent="fuQh6k8OXMfidY5moS3Q-91">
          <mxGeometry x="40" y="120" width="120" height="60" as="geometry" />
        </mxCell>
        <mxCell id="fuQh6k8OXMfidY5moS3Q-95" value="自动确认" style="edgeStyle=orthogonalEdgeStyle;rounded=0;html=1;endArrow=classic;endFill=1;entryX=0.5;entryY=0;entryDx=0;entryDy=0;" edge="1" parent="fuQh6k8OXMfidY5moS3Q-70" source="fuQh6k8OXMfidY5moS3Q-96" target="fuQh6k8OXMfidY5moS3Q-104">
          <mxGeometry relative="1" as="geometry">
            <mxPoint x="455" y="1620" as="targetPoint" />
          </mxGeometry>
        </mxCell>
        <mxCell id="fuQh6k8OXMfidY5moS3Q-96" value="退货确认" style="swimlane;startSize=20;" vertex="1" parent="fuQh6k8OXMfidY5moS3Q-70">
          <mxGeometry x="355" y="1340" width="200" height="200" as="geometry" />
        </mxCell>
        <mxCell id="fuQh6k8OXMfidY5moS3Q-97" value="确认换出" style="edgeStyle=orthogonalEdgeStyle;rounded=1;html=1;entryX=0;entryY=0.5;entryDx=0;entryDy=0;endArrow=classic;endFill=1;jumpStyle=none;" edge="1" parent="fuQh6k8OXMfidY5moS3Q-70" source="fuQh6k8OXMfidY5moS3Q-109" target="fuQh6k8OXMfidY5moS3Q-104">
          <mxGeometry relative="1" as="geometry">
            <mxPoint x="395" y="1650" as="targetPoint" />
          </mxGeometry>
        </mxCell>
        <mxCell id="fuQh6k8OXMfidY5moS3Q-98" value="可退/不可退回" style="edgeStyle=orthogonalEdgeStyle;rounded=1;html=1;exitX=0.5;exitY=0.5;exitDx=0;exitDy=0;exitPerimeter=0;entryX=0;entryY=0.5;entryDx=0;entryDy=0;endArrow=classic;endFill=1;jumpStyle=none;" edge="1" parent="fuQh6k8OXMfidY5moS3Q-70" source="fuQh6k8OXMfidY5moS3Q-99" target="fuQh6k8OXMfidY5moS3Q-102">
          <mxGeometry relative="1" as="geometry" />
        </mxCell>
        <mxCell id="fuQh6k8OXMfidY5moS3Q-99" value="客服" style="shape=umlActor;verticalLabelPosition=bottom;verticalAlign=top;html=1;outlineConnect=0;startSize=20;" vertex="1" parent="fuQh6k8OXMfidY5moS3Q-70">
          <mxGeometry x="50" y="1130" width="30" height="60" as="geometry" />
        </mxCell>
        <mxCell id="fuQh6k8OXMfidY5moS3Q-100" value="换出确认" style="swimlane;startSize=20;" vertex="1" parent="fuQh6k8OXMfidY5moS3Q-70">
          <mxGeometry x="355" y="1730" width="200" height="200" as="geometry" />
        </mxCell>
        <mxCell id="fuQh6k8OXMfidY5moS3Q-101" value="交易出库确认" style="swimlane;startSize=20;" vertex="1" parent="fuQh6k8OXMfidY5moS3Q-70">
          <mxGeometry x="355" y="1980" width="200" height="200" as="geometry" />
        </mxCell>
        <mxCell id="fuQh6k8OXMfidY5moS3Q-102" value="退换货订单客服操作" style="swimlane;startSize=20;" vertex="1" parent="fuQh6k8OXMfidY5moS3Q-70">
          <mxGeometry x="355" y="1110" width="200" height="200" as="geometry" />
        </mxCell>
        <mxCell id="fuQh6k8OXMfidY5moS3Q-103" style="edgeStyle=orthogonalEdgeStyle;rounded=0;html=1;exitX=0.5;exitY=1;exitDx=0;exitDy=0;entryX=0.5;entryY=0;entryDx=0;entryDy=0;endArrow=classic;endFill=1;" edge="1" parent="fuQh6k8OXMfidY5moS3Q-70" source="fuQh6k8OXMfidY5moS3Q-104" target="fuQh6k8OXMfidY5moS3Q-100">
          <mxGeometry relative="1" as="geometry" />
        </mxCell>
        <mxCell id="fuQh6k8OXMfidY5moS3Q-104" value="已退回确认" style="rounded=0;whiteSpace=wrap;html=1;startSize=20;" vertex="1" parent="fuQh6k8OXMfidY5moS3Q-70">
          <mxGeometry x="395" y="1620" width="120" height="60" as="geometry" />
        </mxCell>
        <mxCell id="fuQh6k8OXMfidY5moS3Q-105" value="OMS退款接口" style="swimlane;startSize=20;dashed=1;" vertex="1" parent="fuQh6k8OXMfidY5moS3Q-70">
          <mxGeometry x="80" y="50" width="200" height="160" as="geometry">
            <mxRectangle x="80" y="50" width="110" height="20" as="alternateBounds" />
          </mxGeometry>
        </mxCell>
        <mxCell id="fuQh6k8OXMfidY5moS3Q-106" value="退款数据入库&lt;br&gt;已开发功能此处略" style="rounded=0;whiteSpace=wrap;html=1;startSize=20;" vertex="1" parent="fuQh6k8OXMfidY5moS3Q-105">
          <mxGeometry x="40" y="50" width="120" height="60" as="geometry" />
        </mxCell>
        <mxCell id="fuQh6k8OXMfidY5moS3Q-107" value="退款asRefund" style="shape=datastore;whiteSpace=wrap;html=1;startSize=20;" vertex="1" parent="fuQh6k8OXMfidY5moS3Q-70">
          <mxGeometry x="480" y="70" width="60" height="60" as="geometry" />
        </mxCell>
        <mxCell id="fuQh6k8OXMfidY5moS3Q-108" value="退款数据入库" style="edgeStyle=orthogonalEdgeStyle;rounded=1;html=1;entryX=0;entryY=0.5;entryDx=0;entryDy=0;endArrow=classic;endFill=1;" edge="1" parent="fuQh6k8OXMfidY5moS3Q-70" source="fuQh6k8OXMfidY5moS3Q-106" target="fuQh6k8OXMfidY5moS3Q-107">
          <mxGeometry relative="1" as="geometry" />
        </mxCell>
        <mxCell id="fuQh6k8OXMfidY5moS3Q-109" value="主管" style="shape=umlActor;verticalLabelPosition=bottom;verticalAlign=top;html=1;outlineConnect=0;startSize=20;" vertex="1" parent="fuQh6k8OXMfidY5moS3Q-70">
          <mxGeometry x="50" y="1620" width="30" height="60" as="geometry" />
        </mxCell>
        <mxCell id="fuQh6k8OXMfidY5moS3Q-110" style="edgeStyle=orthogonalEdgeStyle;rounded=1;html=1;entryX=1;entryY=0.5;entryDx=0;entryDy=0;endArrow=classic;endFill=1;exitX=0;exitY=0.5;exitDx=0;exitDy=0;" edge="1" parent="1" source="fuQh6k8OXMfidY5moS3Q-33" target="fuQh6k8OXMfidY5moS3Q-76">
          <mxGeometry relative="1" as="geometry">
            <Array as="points">
              <mxPoint x="240" y="580" />
              <mxPoint x="240" y="529" />
            </Array>
          </mxGeometry>
        </mxCell>
        <mxCell id="fuQh6k8OXMfidY5moS3Q-111" value="调用创建退换货信息" style="edgeLabel;html=1;align=center;verticalAlign=middle;resizable=0;points=[];" vertex="1" connectable="0" parent="fuQh6k8OXMfidY5moS3Q-110">
          <mxGeometry x="-0.5308" y="-3" relative="1" as="geometry">
            <mxPoint x="-110" y="-8" as="offset" />
          </mxGeometry>
        </mxCell>
        <mxCell id="fuQh6k8OXMfidY5moS3Q-112" value="奇门" style="swimlane;startSize=20;" vertex="1" parent="1">
          <mxGeometry x="990" y="10" width="380" height="1790" as="geometry" />
        </mxCell>
        <mxCell id="fuQh6k8OXMfidY5moS3Q-113" value="" style="edgeStyle=orthogonalEdgeStyle;rounded=0;html=1;endArrow=classic;endFill=1;" edge="1" parent="fuQh6k8OXMfidY5moS3Q-112" source="fuQh6k8OXMfidY5moS3Q-114" target="fuQh6k8OXMfidY5moS3Q-115">
          <mxGeometry relative="1" as="geometry" />
        </mxCell>
        <mxCell id="fuQh6k8OXMfidY5moS3Q-114" value="退货单API" style="rounded=0;whiteSpace=wrap;html=1;startSize=20;" vertex="1" parent="fuQh6k8OXMfidY5moS3Q-112">
          <mxGeometry x="80" y="1110" width="120" height="60" as="geometry" />
        </mxCell>
        <mxCell id="fuQh6k8OXMfidY5moS3Q-115" value="WMS确认收货" style="rounded=0;whiteSpace=wrap;html=1;startSize=20;" vertex="1" parent="fuQh6k8OXMfidY5moS3Q-112">
          <mxGeometry x="80" y="1250" width="120" height="60" as="geometry" />
        </mxCell>
        <mxCell id="fuQh6k8OXMfidY5moS3Q-116" value="" style="edgeStyle=orthogonalEdgeStyle;rounded=0;html=1;endArrow=classic;endFill=1;" edge="1" parent="fuQh6k8OXMfidY5moS3Q-112" source="fuQh6k8OXMfidY5moS3Q-117" target="fuQh6k8OXMfidY5moS3Q-118">
          <mxGeometry relative="1" as="geometry" />
        </mxCell>
        <mxCell id="fuQh6k8OXMfidY5moS3Q-117" value="出库单API" style="rounded=0;whiteSpace=wrap;html=1;startSize=20;" vertex="1" parent="fuQh6k8OXMfidY5moS3Q-112">
          <mxGeometry x="80" y="1365" width="120" height="60" as="geometry" />
        </mxCell>
        <mxCell id="fuQh6k8OXMfidY5moS3Q-118" value="发货出库" style="rounded=0;whiteSpace=wrap;html=1;startSize=20;" vertex="1" parent="fuQh6k8OXMfidY5moS3Q-112">
          <mxGeometry x="80" y="1505" width="120" height="60" as="geometry" />
        </mxCell>
        <mxCell id="fuQh6k8OXMfidY5moS3Q-119" value="退款数据入库" style="edgeStyle=orthogonalEdgeStyle;rounded=1;html=1;exitX=0;exitY=0.5;exitDx=0;exitDy=0;entryX=1;entryY=0.5;entryDx=0;entryDy=0;endArrow=classic;endFill=1;" edge="1" parent="1" source="fuQh6k8OXMfidY5moS3Q-27" target="fuQh6k8OXMfidY5moS3Q-107">
          <mxGeometry relative="1" as="geometry" />
        </mxCell>
        <mxCell id="fuQh6k8OXMfidY5moS3Q-120" value="响应" style="edgeStyle=orthogonalEdgeStyle;rounded=1;html=1;endArrow=classic;endFill=1;exitX=0.5;exitY=1;exitDx=0;exitDy=0;entryX=0;entryY=0.5;entryDx=0;entryDy=0;" edge="1" parent="1" source="fuQh6k8OXMfidY5moS3Q-85" target="fuQh6k8OXMfidY5moS3Q-36">
          <mxGeometry relative="1" as="geometry">
            <mxPoint x="250" y="780" as="targetPoint" />
            <Array as="points">
              <mxPoint x="-260" y="1030" />
              <mxPoint x="240" y="1030" />
              <mxPoint x="240" y="680" />
            </Array>
          </mxGeometry>
        </mxCell>
        <mxCell id="fuQh6k8OXMfidY5moS3Q-121" value="响应" style="edgeStyle=orthogonalEdgeStyle;rounded=1;html=1;entryX=1;entryY=0.75;entryDx=0;entryDy=0;endArrow=classic;endFill=1;exitX=0.5;exitY=1;exitDx=0;exitDy=0;" edge="1" parent="1" source="fuQh6k8OXMfidY5moS3Q-85" target="fuQh6k8OXMfidY5moS3Q-10">
          <mxGeometry relative="1" as="geometry">
            <Array as="points">
              <mxPoint x="-260" y="1030" />
              <mxPoint x="-590" y="1030" />
              <mxPoint x="-590" y="410" />
            </Array>
          </mxGeometry>
        </mxCell>
        <mxCell id="fuQh6k8OXMfidY5moS3Q-122" value="小平台数据库" style="shape=datastore;whiteSpace=wrap;html=1;startSize=20;" vertex="1" parent="1">
          <mxGeometry x="-860" y="520" width="60" height="60" as="geometry" />
        </mxCell>
        <mxCell id="fuQh6k8OXMfidY5moS3Q-123" value="存储" style="edgeStyle=orthogonalEdgeStyle;rounded=1;html=1;endArrow=classic;endFill=1;exitX=0.5;exitY=1;exitDx=0;exitDy=0;entryX=0.5;entryY=0;entryDx=0;entryDy=0;entryPerimeter=0;" edge="1" parent="1" source="fuQh6k8OXMfidY5moS3Q-10" target="fuQh6k8OXMfidY5moS3Q-122">
          <mxGeometry relative="1" as="geometry">
            <mxPoint x="-830" y="550" as="targetPoint" />
            <mxPoint x="-730" y="350" as="sourcePoint" />
          </mxGeometry>
        </mxCell>
      </root>
    </mxGraphModel>
  </diagram>
</mxfile>
